# xmcd CD database file
#
# Track frame offsets:
#	150
#	26682
#	43857
#	64575
#	81050
#	103157
#	121127
#	132945
#	151532
#	170450
#	183995
#	200362
#	230062
#	256557
#	274420
#
# Disc length: 3957 seconds
#
# Revision: 7
# Processed by: cddbd v1.4PL0 Copyright (c) Steve Scherf et al.
# Submitted via: CDex 1.50
#
DISCID=c40f730f
DTITLE=Various Artist - Amigos 3
DYEAR=1900
DGENRE=Country
TTITLE0=Andanca
TTITLE1=Toma Juizo
TTITLE2=Te Amo Cada Vez Mais
TTITLE3=Cerveja
TTITLE4=O Homem de Nazareth
TTITLE5=Desculpe Mas Eu Vou Chorar
TTITLE6=Estrada da Vida
TTITLE7=Majestade, O Sabia
TTITLE8=(Unencounter) Cancao da America
TTITLE9=Eu So  Quero um Xodo 
TTITLE10=Pense em Mim
TTITLE11=De Volta pro Aconchego/Milla/Mineirinho
TTITLE12=uma Partida de Futebol/Beleza Rara/La Bamba
TTITLE13=Voca Vai Ver
TTITLE14=Marcas do que se Foi
EXTD=
EXTT0=Zez  di Camargo and Luciano/Leandro and \nLeonardo/Chit ozinho and Xoror \n
EXTT1=Zez  di Camargo and Luciano\n
EXTT2=Daniel com Luciano/Chit ozinho e \nLeandro\n
EXTT3=Leandro and Leonardo\n
EXTT4=Chit ozinho and Xoror \n
EXTT5=F bio Jr. com Leandro and Leonardo\n
EXTT6=Zez  di Camargo and Luciano/Leandro and \nLeonardo/Chit ozinho and Xoror \n
EXTT7=Roberta Miranda com Chit ozinho and \nXoror \n
EXTT8=Daniel com Zez  di Camargo and \nLuciano/Leandro and \nLeonardo/Chit ozinho and Xoror \n
EXTT9=Daniela Mercury com Zez  di Camargo and \nLuciano\n
EXTT10=Leandro and Leonardo\n
EXTT11=Zez  di Camargo - Leonardo - \nChit ozinho\n
EXTT12=Luciano/Xoror  e Zez  di \nCamargo/Leandro e todos\n
EXTT13=Zez  di Camargo and Luciano\n
EXTT14=Zez  di Camargo and Luciano/Leandro and \nLeonardo/Chit ozinho and Xoror \n
PLAYORDER=
